<mxfile host="app.diagrams.net" modified="2023-03-28T14:06:12.290Z" agent="Mozilla/5.0 (Macintosh; Intel Mac OS X 10_15_7) AppleWebKit/537.36 (KHTML, like Gecko) Chrome/111.0.0.0 Safari/537.36" version="21.1.1" etag="dZEuLPPSYhmfoxz4obP7" type="github">
  <diagram name="第 1 页" id="Eh4Xt1JGZO4qBV-IslAB">
    <mxGraphModel>
      <root>
        <mxCell id="0" />
        <mxCell id="1" parent="0" />
      </root>
    </mxGraphModel>
  </diagram>
</mxfile>
